<?xml version="1.0" encoding="UTF-8" standalone="no"?>
<svg
   xmlns:osb="http://www.openswatchbook.org/uri/2009/osb"
   xmlns:dc="http://purl.org/dc/elements/1.1/"
   xmlns:cc="http://creativecommons.org/ns#"
   xmlns:rdf="http://www.w3.org/1999/02/22-rdf-syntax-ns#"
   xmlns:svg="http://www.w3.org/2000/svg"
   xmlns="http://www.w3.org/2000/svg"
   xmlns:sodipodi="http://sodipodi.sourceforge.net/DTD/sodipodi-0.dtd"
   xmlns:inkscape="http://www.inkscape.org/namespaces/inkscape"
   width="512"
   height="512"
   viewBox="0 0 512 512"
   version="1.1"
   id="svg18"
   sodipodi:docname="shadow (cópia).svg"
   style="fill:none"
   inkscape:version="0.92.5 (2060ec1f9f, 2020-04-08)">
  <metadata
     id="metadata24">
    <rdf:RDF>
      <cc:Work
         rdf:about="">
        <dc:format>image/svg+xml</dc:format>
        <dc:type
           rdf:resource="http://purl.org/dc/dcmitype/StillImage" />
        <dc:title></dc:title>
      </cc:Work>
    </rdf:RDF>
  </metadata>
  <defs
     id="defs22">
    <linearGradient
       id="linearGradient1232"
       osb:paint="solid">
      <stop
         style="stop-color:#242424;stop-opacity:1;"
         offset="0"
         id="stop1230" />
    </linearGradient>
  </defs>
  <sodipodi:namedview
     pagecolor="#ffffff"
     bordercolor="#666666"
     borderopacity="1"
     objecttolerance="10"
     gridtolerance="10"
     guidetolerance="10"
     inkscape:pageopacity="0"
     inkscape:pageshadow="2"
     inkscape:window-width="1366"
     inkscape:window-height="704"
     id="namedview20"
     showgrid="false"
     fit-margin-top="0"
     fit-margin-left="0"
     fit-margin-right="0"
     fit-margin-bottom="0"
     inkscape:zoom="0.4609375"
     inkscape:cx="-74.9211"
     inkscape:cy="330.70941"
     inkscape:window-x="0"
     inkscape:window-y="0"
     inkscape:window-maximized="1"
     inkscape:current-layer="svg18" />
  <path
     style="opacity:1;fill:#242424;fill-opacity:1;stroke:#838383;stroke-width:0.30612668;stroke-miterlimit:4;stroke-dasharray:none;stroke-opacity:1"
     d="M 135.9229,510.64839 C 51.308127,501.30914 15.016073,468.26942 3.0792312,389.70984 -0.76123514,364.4349 -0.84706534,149.59554 2.9737594,124.89312 9.0770126,85.43009 18.406007,62.873163 36.694489,43.357671 57.749279,20.89035 83.114915,9.8202213 127.79041,3.6014632 148.11058,0.77293763 169.29018,0.19494063 254.10852,0.15415363 c 70.68994,-0.03397 108.02485,0.726777 121.88577,2.48363737 48.45601,6.1418196 76.14775,17.5262 97.34586,40.020024 20.38616,21.632006 29.7929,45.817293 35.87201,92.228375 3.49398,26.67417 3.52037,212.92344 0.0348,242.34934 -9.59743,81.01426 -40.52454,116.97016 -112.27213,130.52779 -16.65842,3.14774 -32.92545,3.64043 -132.87562,4.02426 -62.64121,0.24057 -120.32043,-0.27208 -128.17599,-1.13919 z"
     id="path1131-6-2"
     inkscape:connector-curvature="0"
     inkscape:export-xdpi="100"
     inkscape:export-ydpi="100" />
  <g
     id="g1591"
     transform="matrix(1.0230059,0,0,1.0232563,1.5132941e-5,-2.2371856e-5)">
    <path
       inkscape:export-ydpi="98.291237"
       inkscape:export-xdpi="98.291237"
       inkscape:connector-curvature="0"
       id="path4"
       d="m 0.4706984,192.41025 c -0.84512,71.33361 0.01158,171.81148 2.5390595,188.4414 C 14.678138,457.6258 50.153308,489.91606 132.86523,499.04306 h 0.002 c 7.67888,0.8474 64.06045,1.34838 125.29297,1.11328 20.03611,-0.0769 35.92055,-0.16415 49.78516,-0.27149 z"
       style="fill:#e11e5a" />
    <path
       inkscape:export-ydpi="98.291237"
       inkscape:export-xdpi="98.291237"
       inkscape:connector-curvature="0"
       id="path6"
       d="m 248.39453,0.15047849 c -23.21097,0.01116 -41.1738,0.07294 -55.98047,0.20313 L 499.95703,307.89658 C 500.86389,242.9438 500.12874,149.90148 497.75976,131.8204 491.81742,86.464129 482.62293,62.827949 462.69531,41.687589 441.97384,19.704999 414.90536,8.580439 367.53906,2.578209 353.98987,0.86127849 317.49474,0.11727849 248.39453,0.15047849 Z"
       style="fill:#2eb77c" />
    <path
       inkscape:export-ydpi="98.291237"
       inkscape:export-xdpi="98.291237"
       inkscape:connector-curvature="0"
       id="path8"
       d="M 248.39453,0.15047849 C 165.4836,0.19033849 144.7792,0.75537849 124.91601,3.519619 81.245208,9.597039 56.450418,20.416449 35.869138,42.373139 17.991918,61.445089 8.8722779,83.488649 2.9062479,122.05478 0.4170384,138.14427 -0.3652216,236.61819 0.4941384,307.92978 L 308.01953,0.40438849 c -16.40105,-0.17858 -35.96892,-0.26528 -59.625,-0.25391 z"
       style="fill:#fbbc05" />
    <path
       inkscape:export-ydpi="98.291237"
       inkscape:export-xdpi="98.291237"
       inkscape:connector-curvature="0"
       id="path10"
       d="M 499.96875,192.45517 192.30273,500.12118 c 19.60438,0.10485 42.33589,0.12543 65.85742,0.0352 97.70238,-0.3751 113.60293,-0.85729 129.88672,-3.93359 70.13409,-13.2494 100.36644,-48.38749 109.74805,-127.56055 2.34294,-19.77659 3.06384,-112.0336 2.17383,-176.20703 z"
       style="fill:#4285f4" />
    <path
       inkscape:export-ydpi="98.291237"
       inkscape:export-xdpi="98.291237"
       id="circle12"
       d="m 250.24219,145.18164 a 105,105 0 0 0 -105,105 105,105 0 0 0 105,105 105,105 0 0 0 105,-105 105,105 0 0 0 -105,-105 z m 0.95898,41 c 7.733,0 14.56342,1.4282 20.48242,4.2832 5.919,2.856 10.49175,6.74139 13.71875,11.65039 3.227,4.913 4.83985,10.25063 4.83985,16.01563 0,4.539 -0.91877,8.51664 -2.75977,11.93164 -1.841,3.417 -4.02759,6.3637 -6.55859,8.8457 -2.535,2.481 -7.07967,6.65925 -13.63867,12.53125 -1.814,1.656 -3.26833,3.11224 -4.36133,4.36524 -1.092,1.253 -1.90741,2.4004 -2.44141,3.4414 -0.535,1.041 -0.94723,2.08205 -1.24023,3.12305 -0.294,1.041 -0.73141,2.86938 -1.31641,5.48438 -1.013,5.553 -4.18948,8.32812 -9.52148,8.32812 -2.774,0 -5.109,-0.9057 -7,-2.7207 -1.894,-1.815 -2.83985,-4.51094 -2.83985,-8.08594 0,-4.485 0.69208,-8.36739 2.08008,-11.65039 1.384,-3.284 3.22553,-6.16444 5.51953,-8.64844 2.292,-2.483 5.3853,-5.43065 9.2793,-8.84765 3.412,-2.988 5.88034,-5.24363 7.40234,-6.76563 1.52,-1.522 2.79985,-3.21394 3.83985,-5.08594 1.04,-1.866 1.55859,-3.89693 1.55859,-6.08593 0,-4.268 -1.58481,-7.8726 -4.75781,-10.8086 -3.174,-2.934 -7.26921,-4.40429 -12.28321,-4.4043 -5.86699,0 -10.18503,1.48336 -12.95703,4.44336 -2.774,2.963 -5.11906,7.3248 -7.03906,13.0918 -1.814,6.033 -5.25431,9.04688 -10.32031,9.04688 -2.988,0 -5.50755,-1.05311 -7.56055,-3.16211 -2.057,-2.108 -3.08398,-4.39071 -3.08398,-6.84571 0,-5.071 1.62686,-10.20906 4.88086,-15.41406 3.253,-5.206 8.00023,-9.51659 14.24023,-12.93359 6.24,-3.415 13.51789,-5.12305 21.83789,-5.12305 z m -0.95898,104 c 6.627,0 12,5.373 12,12 0,6.627 -5.373,12 -12,12 -6.627,0 -12,-5.373 -12,-12 0,-6.627 5.373,-12 12,-12 z"
       style="fill:#ffffff"
       inkscape:connector-curvature="0" />
  </g>
  <rect
     style="opacity:0;fill:#242424;fill-opacity:1;stroke:#838383;stroke-width:0.235;stroke-miterlimit:4;stroke-dasharray:none;stroke-opacity:1"
     id="rect1256"
     width="663.86438"
     height="56.40678"
     x="-262.50848"
     y="-260.33899" />
  <rect
     style="opacity:0;fill:#000000;fill-opacity:1;stroke:#838383;stroke-width:0.235;stroke-miterlimit:4;stroke-dasharray:none;stroke-opacity:1"
     id="rect1258"
     width="312.40677"
     height="193.08475"
     x="433.89832"
     y="-312.40677" />
  <rect
     style="opacity:0;fill:#000000;fill-opacity:1;stroke:#838383;stroke-width:0.235;stroke-miterlimit:4;stroke-dasharray:none;stroke-opacity:1"
     id="rect1260"
     width="878.6441"
     height="295.05084"
     x="-32.542377"
     y="-338.44067" />
  <rect
     style="opacity:0;fill:#000000;fill-opacity:1;stroke:#838383;stroke-width:0.235;stroke-miterlimit:4;stroke-dasharray:none;stroke-opacity:1"
     id="rect1262"
     width="312.40674"
     height="193.08475"
     x="433.89832"
     y="-312.40677" />
  <rect
     style="opacity:0;fill:#000000;fill-opacity:1;stroke:#838383;stroke-width:0.235;stroke-miterlimit:4;stroke-dasharray:none;stroke-opacity:1"
     id="rect1264"
     width="206.1017"
     height="262.50848"
     x="828.74579"
     y="-242.98303" />
</svg>
