<svg width="173" height="60" viewBox="0 0 173 60" fill="none" xmlns="http://www.w3.org/2000/svg">
<path d="M71.6982 22.0449C70.9312 22.4068 70.0569 23.0812 69.3063 23.8542C68.4485 24.7589 67.9371 25.499 67.3845 26.6504C66.9721 27.5139 66.4854 29.1588 66.4854 29.7016C66.4854 30.1374 66.7823 31.1654 67.0793 31.7411C67.6814 32.9501 69.529 34.1508 69.9001 33.5833C69.9744 33.4682 69.9249 33.3119 69.6032 32.7116C69.1083 31.7905 68.9434 31.1079 68.9434 29.9483C68.9351 28.0896 69.496 26.2639 70.5353 24.7671C71.0384 24.0351 71.5333 23.5499 71.7312 23.591C71.8797 23.6157 71.888 23.8953 71.888 32.0043C71.888 41.0179 71.8632 41.4538 71.4591 42.9095C71.3436 43.3371 71.2281 43.8223 71.2034 43.9868C71.1704 44.2911 71.1786 44.2993 71.4426 44.2993C72.1849 44.2993 73.3066 43.2878 73.8675 42.12C74.6593 40.4751 74.6758 40.2284 74.6841 30.7707C74.6923 21.7077 74.7748 22.5877 73.8675 22.1601C73.1004 21.8064 72.2921 21.7653 71.6982 22.0449Z" fill="#FCFCFC"/>
<path d="M101.078 21.9133C100.847 22.0614 100.789 22.3986 100.748 23.8378C100.724 24.6684 100.691 25.5073 100.666 25.7047L100.616 26.0665L99.1399 26.0089L97.6634 25.9514L97.5067 26.2063C97.1933 26.7244 97.1108 27.7031 97.3665 27.8676C97.416 27.9005 97.8532 27.9334 98.3315 27.9334C98.8099 27.9334 99.4863 27.9581 99.8327 27.9827L100.468 28.0403V31.4204V34.8005L100.196 35.5983C100.039 36.0341 99.742 36.6674 99.5358 37.0046C99.0986 37.6954 98.447 38.4602 98.2821 38.4602C98.2078 38.4602 98.1666 38.2382 98.1418 37.6132C98.1171 36.8894 98.0759 36.7085 97.8614 36.2809C97.5067 35.5571 96.8304 34.891 95.222 33.682C94.4302 33.0817 93.7868 32.58 93.7868 32.5718C93.7868 32.5553 93.9435 32.3251 94.1415 32.0619C94.3394 31.7905 94.6446 31.2888 94.8178 30.927C95.0818 30.4006 95.1478 30.1703 95.1725 29.6933C95.2055 29.1341 95.1972 29.1012 94.9498 28.8545C94.7683 28.6736 94.5786 28.5831 94.3147 28.542C92.7805 28.3117 91.3784 29.3973 91.0649 31.0668C90.9494 31.6589 91.0814 32.2593 91.4443 32.7938C91.6011 33.0241 91.7248 33.2544 91.7248 33.3037C91.7248 33.5833 89.0111 38.2135 88.4997 38.8139C88.1203 39.2498 87.7492 39.48 87.5182 39.406C87.4357 39.3813 87.3038 39.2251 87.2213 39.0524C87.0893 38.7892 87.0646 38.4767 87.0398 36.8401C87.0233 35.7874 87.0481 33.9534 87.0976 32.7609C87.147 31.5684 87.1635 30.4664 87.1306 30.3184C87.0563 29.9401 86.5202 29.4302 85.8273 29.0848C85.3242 28.838 85.1675 28.7969 84.6726 28.7969C84.2519 28.8051 84.0045 28.8463 83.7653 28.9778C82.5776 29.6029 81.5795 31.1737 80.5403 34.0603C80.0701 35.368 79.8557 35.7956 79.8392 35.4584C79.8309 35.368 79.8309 33.9863 79.8474 32.3908C79.8639 29.7262 79.8557 29.4713 79.7237 29.3315C79.5175 29.1094 78.7504 28.838 78.1566 28.7805C77.7442 28.7393 77.6369 28.764 77.5379 28.8792C77.4307 29.0025 77.406 29.8332 77.3812 34.5456C77.3565 40.1626 77.3812 40.689 77.6699 41.2976C77.8596 41.7005 78.1236 41.8403 78.8164 41.8897C79.6247 41.9555 79.9134 41.8403 79.9712 41.4291C80.2433 39.5623 80.8867 37.1033 81.5218 35.4831C82.5198 32.9336 84.1695 30.4335 84.4994 30.9599C84.5241 31.001 84.4829 32.5224 84.4087 34.34C84.2932 37.0621 84.2849 37.8352 84.3674 38.7316C84.5901 41.1002 85.052 41.8732 86.281 41.8732C86.9408 41.8732 87.4357 41.6265 88.2193 40.9028C89.0111 40.1791 89.605 39.3402 91.1969 36.6838C91.997 35.3515 92.6898 34.2659 92.7475 34.2659C92.8053 34.2659 93.3579 34.7594 93.9683 35.3515C94.9003 36.2644 95.1313 36.544 95.3622 37.021C95.6097 37.5227 95.6426 37.6707 95.6426 38.2546C95.6426 38.8057 95.6097 38.9701 95.4364 39.2827C95.156 39.7843 94.7766 40.0228 94.2652 40.0228C93.7703 40.0228 93.4321 39.883 92.7393 39.406C92.0217 38.9043 91.8238 38.8714 91.4608 39.184C91.0319 39.5623 90.7185 40.1955 90.7515 40.615C90.7762 40.911 90.8175 40.9933 91.0979 41.1824C92.0547 41.8239 94.2735 42.12 95.6839 41.7828C97.3913 41.388 98.8594 40.0804 99.9729 37.9586C100.204 37.5145 100.427 37.1444 100.468 37.1444C100.542 37.1444 100.583 37.3335 100.674 38.0079C100.765 38.6823 101.119 39.7843 101.416 40.3189C101.746 40.911 102.315 41.4538 102.843 41.6923C103.363 41.9226 104.344 41.939 104.757 41.717C105.549 41.2893 106.233 40.508 106.819 39.3402C107.025 38.9372 107.231 38.6083 107.273 38.6165C107.322 38.6247 107.413 38.8057 107.487 39.0195C107.726 39.7268 108.147 40.4587 108.576 40.9028C110.143 42.5558 112.716 42.1117 114.209 39.9406C114.424 39.6198 114.638 39.3731 114.688 39.3896C114.729 39.406 114.811 39.5869 114.869 39.8008C115.075 40.6067 115.702 41.3469 116.453 41.6841C117.005 41.9308 117.929 41.9308 118.507 41.6759C118.985 41.462 119.612 40.8535 119.966 40.2449C120.09 40.031 120.23 39.8583 120.263 39.8583C120.296 39.8583 120.445 40.0393 120.585 40.2613C121.913 42.3173 124.354 42.4572 126.21 40.5821C126.557 40.2366 126.862 39.9735 126.895 39.9981C126.92 40.031 126.944 40.3353 126.944 40.6725V41.3058L125.938 42.2022C123.761 44.1513 122.383 45.6152 121.847 46.5445C121.311 47.4656 121.179 48.7239 121.517 49.6204C122.193 51.4379 125.006 52.1369 126.87 50.9527C127.349 50.6484 128.083 49.8835 128.371 49.3983C128.677 48.8637 128.982 47.9015 129.188 46.7913C129.353 45.9113 129.369 45.5741 129.353 43.2384L129.345 40.6561L129.947 39.9077C131.638 37.8105 133.196 35.0966 134.079 32.7445C134.244 32.2922 134.409 31.8974 134.434 31.8727C134.533 31.7823 136.463 31.7082 136.586 31.7905C136.677 31.8481 136.661 32.0454 136.488 32.9994C136.174 34.6689 136.075 35.7298 136.125 36.9388C136.224 39.3896 136.941 40.8452 138.393 41.5607C138.937 41.8321 139.094 41.8732 139.597 41.8732C140.051 41.8732 140.273 41.8239 140.595 41.6759C141.073 41.4456 141.874 40.6643 142.03 40.286C142.162 39.9735 142.385 39.9406 142.509 40.212C142.698 40.615 143.457 41.3387 143.96 41.5854C145.552 42.3667 147.598 41.6347 148.728 39.8912C148.917 39.6034 149.115 39.3731 149.157 39.3896C149.206 39.406 149.313 39.6198 149.396 39.8666C149.948 41.4785 151.722 42.3667 153.058 41.6841C153.479 41.4703 154.015 40.8946 154.287 40.36C154.609 39.7185 154.691 39.7925 154.765 40.8288C154.79 41.1084 154.856 41.4045 154.914 41.4703C155.318 41.9555 157.298 42.0788 157.586 41.6347C157.677 41.5032 157.726 40.985 157.792 39.6856C157.883 37.7694 157.966 37.0457 158.213 36.0341C158.683 34.1426 159.574 32.0043 159.896 32.0043C160.094 32.0043 160.168 32.3826 160.176 33.4847C160.201 35.5983 160.622 39.0113 160.968 39.8337C161.29 40.6067 162.057 41.0179 162.923 40.8781C163.434 40.7959 163.566 40.5985 163.566 39.9406C163.566 38.1559 164.21 35.187 165.067 33.0488C165.496 31.9632 165.669 31.6671 165.744 31.8892C165.768 31.955 165.801 33.205 165.818 34.6772C165.859 37.5638 165.95 38.4849 166.321 39.5376C166.849 41.0508 167.855 41.8732 169.175 41.8732C169.893 41.8732 170.288 41.7005 170.792 41.1989C171.328 40.6479 171.806 39.4142 172.037 37.9503C172.12 37.4322 171.608 36.9223 171.336 37.2513C171.286 37.3089 171.13 37.7776 170.99 38.2958C170.693 39.3813 170.396 39.9899 170.066 40.1544C169.323 40.5409 168.705 39.957 168.383 38.5589C168.177 37.6872 168.103 35.3104 168.193 32.6376C168.284 29.8578 168.284 29.8414 167.6 29.4137C167.08 29.0765 166.173 28.7558 165.735 28.7558C165.051 28.7558 164.787 29.1834 163.937 31.7165C163.558 32.835 163.261 33.9452 162.89 35.6065C162.832 35.8696 162.75 36.0917 162.7 36.0999C162.659 36.1081 162.593 35.9108 162.56 35.664C162.469 34.8828 162.329 32.3251 162.329 31.3217C162.329 30.1374 162.238 29.792 161.834 29.4055C161.248 28.8463 159.945 28.5749 159.508 28.9121C159.195 29.1588 158.799 30.047 158.089 32.1195C157.718 33.1804 157.372 34.0603 157.322 34.085C157.24 34.1097 157.215 33.608 157.215 31.774C157.215 29.0683 157.248 29.1752 156.432 28.9696C155.615 28.764 155.054 28.7229 154.873 28.8627C154.716 28.9778 154.708 29.1341 154.675 33.0406C154.65 36.7661 154.633 37.1526 154.485 37.7201C154.13 39.0606 153.355 40.2613 152.769 40.3929C152.456 40.4587 151.978 40.2449 151.755 39.9406C151.293 39.2991 151.177 37.4898 151.293 32.9501L151.375 29.6193L151.161 29.4384C150.914 29.2246 150.328 29.0354 149.701 28.9696C149.091 28.8956 148.868 29.0272 148.769 29.496C148.728 29.7016 148.678 29.8825 148.662 29.8989C148.654 29.9154 148.398 29.7016 148.109 29.4219C147.359 28.7065 146.979 28.5502 145.998 28.5502C145.313 28.5502 145.148 28.5831 144.727 28.7722C142.806 29.6769 141.618 32.4649 141.634 36.0341C141.634 36.618 141.684 37.4158 141.742 37.7941C141.832 38.4356 141.832 38.5178 141.667 38.9948C141.486 39.5458 141.164 40.031 140.834 40.2449C140.529 40.4422 139.968 40.4176 139.663 40.1955C139.061 39.7679 138.657 38.3287 138.657 36.618C138.657 35.4173 138.756 34.636 139.152 32.7938C139.333 31.9632 139.482 31.149 139.482 30.9845C139.482 30.5322 139.234 30.1374 138.822 29.9236C138.352 29.6851 138.121 29.6933 136.636 29.9894C135.96 30.121 135.275 30.2361 135.135 30.2361H134.863L134.912 29.6358C134.97 28.9285 134.813 28.5749 134.359 28.3281C133.485 27.8594 132.248 28.4597 131.935 29.5042C131.679 30.3924 131.794 30.9763 132.363 31.5684L132.652 31.8645L132.446 32.6047C131.935 34.3811 130.912 36.5029 129.724 38.2711C129.312 38.8797 129.312 38.8879 129.345 34.0768C129.361 31.5931 129.345 29.57 129.303 29.5042C129.188 29.3315 128.594 29.1012 128.008 29.0107C127.142 28.8709 126.779 29.0765 126.779 29.7098C126.779 29.8167 126.755 29.9072 126.73 29.9072C126.697 29.9072 126.441 29.6933 126.161 29.4219C125.46 28.7722 125.039 28.5831 124.198 28.5337C123.653 28.5008 123.431 28.5255 123.035 28.6653C122.094 28.9943 121.311 29.7838 120.684 31.0339C119.876 32.6458 119.521 34.8663 119.703 37.2677C119.785 38.3533 119.777 38.4438 119.612 38.8797C119.389 39.4636 119.001 40.0475 118.721 40.2284C118.416 40.434 117.929 40.4258 117.649 40.2202C116.824 39.6116 116.651 38.1313 116.799 32.909L116.89 29.6193L116.675 29.4384C116.214 29.0436 114.729 28.8134 114.448 29.093C114.374 29.167 114.292 29.3808 114.267 29.57C114.242 29.7509 114.201 29.9072 114.176 29.9072C114.152 29.9072 113.896 29.6851 113.615 29.4137C112.881 28.7065 112.494 28.5502 111.52 28.5502C110.811 28.5502 110.687 28.5749 110.201 28.8051C109.533 29.1259 108.889 29.7591 108.37 30.6227C107.66 31.7823 107.297 33.1804 107.141 35.2446C107.042 36.6674 106.91 37.202 106.481 38.0984C105.961 39.1511 105.07 40.0228 104.501 40.0228C104.204 40.0228 103.8 39.5294 103.619 38.9455C103.313 37.975 103.247 36.9635 103.305 34.3893C103.396 30.6062 103.511 28.2377 103.602 28.1472C103.66 28.0896 104.386 28.0403 105.474 28.0156L107.264 27.9745L107.421 27.7113C107.503 27.5633 107.594 27.2426 107.619 26.9958C107.66 26.6093 107.644 26.5435 107.503 26.4613C107.413 26.4201 106.58 26.3379 105.656 26.2886C104.732 26.2392 103.883 26.1817 103.775 26.157L103.577 26.1159L103.635 24.3723C103.693 22.744 103.685 22.6124 103.544 22.4973C103.338 22.3163 102.769 22.1107 102.101 21.9709C101.466 21.8311 101.21 21.8229 101.078 21.9133ZM112.923 30.6638C113.855 31.1408 114.242 32.2757 114.242 34.5538C114.242 36.5276 113.879 38.2217 113.252 39.1922C112.477 40.3929 111.471 40.6561 110.737 39.8501C110.159 39.2169 109.871 38.1724 109.805 36.5111C109.714 34.0932 110.168 32.0537 110.992 31.1408C111.578 30.4993 112.254 30.3266 112.923 30.6638ZM125.781 30.7543C126.524 31.2477 126.821 32.4813 126.755 34.8416C126.705 36.6756 126.482 37.7776 125.955 38.8468C125.254 40.2695 124.124 40.7383 123.315 39.9324C122.721 39.3402 122.416 38.2875 122.35 36.6098C122.251 34.2577 122.713 32.2264 123.571 31.1901C124.157 30.4993 125.105 30.3102 125.781 30.7543ZM147.4 30.6638C148.34 31.149 148.72 32.2757 148.72 34.636C148.72 37.095 148.2 38.9126 147.227 39.8172C146.064 40.9028 144.917 40.1955 144.455 38.1148C144.274 37.2924 144.274 34.7758 144.455 33.6903C144.744 31.9961 145.272 31.0256 146.121 30.6391C146.567 30.4335 146.963 30.4417 147.4 30.6638ZM127.085 44.9491C126.969 48.8637 126.268 50.4674 124.676 50.4674C123.917 50.4674 123.406 50.048 123.233 49.2832C123.068 48.5594 123.373 47.5314 124.074 46.4623C124.833 45.3027 126.845 43.074 127.027 43.1891C127.109 43.2384 127.126 43.625 127.085 44.9491Z" fill="#FCFCFC"/>
<path d="M10.5 60L49.5 60C55.299 60 60 55.299 60 49.5L60 10.5C60 4.70101 55.299 0 49.5 0L10.5 0C4.70102 0 1.52588e-05 4.70101 1.52588e-05 10.5L1.52588e-05 49.5C1.52588e-05 55.299 4.70102 60 10.5 60Z" fill="url(#paint0_radial)"/>
<path d="M41.25 52.5H18.75C15.7663 52.5 12.9048 51.3147 10.795 49.205C8.68526 47.0952 7.5 44.2337 7.5 41.25V18.75C7.5 15.7663 8.68526 12.9048 10.795 10.795C12.9048 8.68526 15.7663 7.5 18.75 7.5H41.25C44.2337 7.5 47.0952 8.68526 49.205 10.795C51.3147 12.9048 52.5 15.7663 52.5 18.75V41.25C52.5 44.2337 51.3147 47.0952 49.205 49.205C47.0952 51.3147 44.2337 52.5 41.25 52.5V52.5ZM18.75 12C16.9606 12.0025 15.2451 12.7144 13.9798 13.9798C12.7144 15.2451 12.0025 16.9606 12 18.75V41.25C12.0025 43.0394 12.7144 44.7549 13.9798 46.0202C15.2451 47.2856 16.9606 47.9975 18.75 48H41.25C43.0394 47.9975 44.7549 47.2856 46.0202 46.0202C47.2856 44.7549 47.9975 43.0394 48 41.25V18.75C47.9975 16.9606 47.2856 15.2451 46.0202 13.9798C44.7549 12.7144 43.0394 12.0025 41.25 12H18.75Z" fill="white"/>
<path d="M30 42.75C27.4783 42.75 25.0132 42.0022 22.9165 40.6013C20.8198 39.2003 19.1856 37.209 18.2205 34.8792C17.2555 32.5495 17.003 29.9859 17.495 27.5126C17.987 25.0394 19.2013 22.7675 20.9844 20.9844C22.7675 19.2013 25.0393 17.987 27.5126 17.495C29.9859 17.0031 32.5495 17.2555 34.8792 18.2206C37.209 19.1856 39.2003 20.8198 40.6012 22.9165C42.0022 25.0132 42.75 27.4783 42.75 30C42.7475 33.3808 41.4034 36.6223 39.0129 39.0129C36.6223 41.4034 33.3808 42.7475 30 42.75V42.75ZM30 21.75C28.3683 21.75 26.7733 22.2339 25.4166 23.1404C24.0598 24.0469 23.0024 25.3354 22.378 26.8429C21.7536 28.3504 21.5902 30.0092 21.9085 31.6095C22.2269 33.2099 23.0126 34.6799 24.1664 35.8337C25.3202 36.9874 26.7902 37.7732 28.3905 38.0915C29.9909 38.4098 31.6497 38.2464 33.1571 37.622C34.6646 36.9976 35.9531 35.9402 36.8596 34.5835C37.7662 33.2268 38.25 31.6317 38.25 30C38.2475 27.8128 37.3775 25.7158 35.8309 24.1691C34.2843 22.6225 32.1873 21.7525 30 21.75V21.75Z" fill="white"/>
<path d="M42.75 20.25C43.9926 20.25 45 19.2426 45 18C45 16.7574 43.9926 15.75 42.75 15.75C41.5074 15.75 40.5 16.7574 40.5 18C40.5 19.2426 41.5074 20.25 42.75 20.25Z" fill="white"/>
<defs>
<radialGradient id="paint0_radial" cx="0" cy="0" r="1" gradientUnits="userSpaceOnUse" gradientTransform="translate(-1.20701 58.7812) rotate(180) scale(138.558)">
<stop stop-color="#F9ED32"/>
<stop offset="0.36" stop-color="#EE2A7B"/>
<stop offset="0.44" stop-color="#D22A8A"/>
<stop offset="0.6" stop-color="#8B2AB2"/>
<stop offset="0.83" stop-color="#1B2AF0"/>
<stop offset="0.88" stop-color="#002AFF"/>
</radialGradient>
</defs>
</svg>
