<svg width="210" height="66" viewBox="0 0 210 66" fill="none" xmlns="http://www.w3.org/2000/svg">
<path d="M84.4243 48.9033C81.6021 48.9033 79.0339 48.2683 76.7197 46.9983C76.2399 46.6597 76 46.194 76 45.6013C76 45.1498 76.1552 44.7547 76.4657 44.416C76.7761 44.0773 77.1712 43.908 77.651 43.908C77.905 43.908 78.159 43.9644 78.413 44.0773C79.3161 44.4724 80.2192 44.7829 81.1223 45.0087C82.0254 45.2344 83.0414 45.3473 84.1703 45.3473C87.303 45.3473 88.8693 44.3454 88.8693 42.3417C88.8693 41.6926 88.5024 41.1987 87.7687 40.86C87.0631 40.5213 85.8919 40.1403 84.255 39.717C82.5899 39.3219 81.207 38.9127 80.1063 38.4893C79.0339 38.066 78.1026 37.431 77.3123 36.5843C76.5503 35.7094 76.1693 34.5665 76.1693 33.1553C76.1693 31.1798 76.8749 29.5711 78.286 28.3293C79.7253 27.0876 81.7714 26.4667 84.4243 26.4667C86.5974 26.4667 88.6436 26.8195 90.5627 27.525C90.9578 27.6379 91.2541 27.8496 91.4517 28.16C91.6774 28.4705 91.7903 28.795 91.7903 29.1337C91.7903 29.5852 91.621 29.9803 91.2823 30.319C90.9719 30.6577 90.5768 30.827 90.097 30.827C89.9559 30.827 89.7724 30.7988 89.5467 30.7423C87.9098 30.2343 86.3011 29.9803 84.7207 29.9803C83.1967 29.9803 81.9972 30.2626 81.1223 30.827C80.2757 31.3632 79.8523 32.0688 79.8523 32.9437C79.8523 33.7903 80.2474 34.4112 81.0377 34.8063C81.8279 35.2014 83.0556 35.5825 84.7207 35.9493C86.3858 36.3727 87.7404 36.796 88.7847 37.2193C89.8289 37.6144 90.7179 38.2495 91.4517 39.1243C92.2137 39.9992 92.5947 41.1704 92.5947 42.638C92.5947 44.4442 91.875 45.94 90.4357 47.1253C89.0246 48.3107 87.0208 48.9033 84.4243 48.9033Z" fill="#030303"/>
<path d="M122.99 48.9033C120.817 48.9033 118.912 48.4377 117.275 47.5063C115.638 46.575 114.368 45.2627 113.465 43.5693C112.59 41.8478 112.152 39.8863 112.152 37.685C112.152 35.4837 112.59 33.5363 113.465 31.843C114.368 30.1214 115.638 28.795 117.275 27.8637C118.912 26.9323 120.817 26.4667 122.99 26.4667C125.135 26.4667 127.026 26.9323 128.662 27.8637C130.299 28.795 131.569 30.1214 132.472 31.843C133.376 33.5363 133.827 35.4837 133.827 37.685C133.827 39.8863 133.376 41.8478 132.472 43.5693C131.569 45.2627 130.299 46.575 128.662 47.5063C127.026 48.4377 125.135 48.9033 122.99 48.9033ZM122.99 45.3897C124.147 45.3897 125.248 45.1216 126.292 44.5853C127.364 44.0491 128.239 43.2024 128.917 42.0453C129.622 40.8882 129.975 39.4207 129.975 37.6427C129.975 35.8929 129.622 34.4394 128.917 33.2823C128.239 32.1252 127.364 31.2927 126.292 30.7847C125.248 30.2484 124.147 29.9803 122.99 29.9803C121.805 29.9803 120.676 30.2484 119.603 30.7847C118.559 31.2927 117.698 32.1252 117.021 33.2823C116.343 34.4394 116.005 35.8929 116.005 37.6427C116.005 39.4207 116.343 40.8882 117.021 42.0453C117.698 43.2024 118.559 44.0491 119.603 44.5853C120.676 45.1216 121.805 45.3897 122.99 45.3897Z" fill="#030303"/>
<path d="M141.108 48.6917C140.572 48.6917 140.121 48.5082 139.754 48.1413C139.387 47.7745 139.203 47.3229 139.203 46.7867V28.6257C139.203 28.0895 139.387 27.6379 139.754 27.271C140.121 26.8759 140.572 26.6783 141.108 26.6783C141.645 26.6783 142.096 26.8759 142.463 27.271C142.858 27.6379 143.056 28.0895 143.056 28.6257V30.446C145.031 27.7931 147.247 26.4667 149.702 26.4667H149.914C150.45 26.4667 150.887 26.6501 151.226 27.017C151.593 27.3839 151.776 27.8354 151.776 28.3717C151.776 28.9079 151.593 29.3453 151.226 29.684C150.859 30.0227 150.394 30.192 149.829 30.192H149.617C148.263 30.192 147.021 30.5307 145.892 31.208C144.763 31.8571 143.818 32.7602 143.056 33.9173V46.7867C143.056 47.3229 142.858 47.7745 142.463 48.1413C142.096 48.5082 141.645 48.6917 141.108 48.6917Z" fill="#030303"/>
<path d="M157.237 22.4873C156.645 22.4873 156.137 22.2757 155.713 21.8523C155.29 21.429 155.078 20.921 155.078 20.3283V20.159C155.078 19.5663 155.29 19.0583 155.713 18.635C156.137 18.2117 156.645 18 157.237 18H157.491C158.084 18 158.592 18.2117 159.015 18.635C159.439 19.0583 159.65 19.5663 159.65 20.159V20.3283C159.65 20.921 159.439 21.429 159.015 21.8523C158.592 22.2757 158.084 22.4873 157.491 22.4873H157.237ZM157.322 48.6917C156.786 48.6917 156.334 48.5082 155.967 48.1413C155.601 47.7744 155.417 47.3229 155.417 46.7867V28.6257C155.417 28.0894 155.601 27.6379 155.967 27.271C156.334 26.8759 156.786 26.6783 157.322 26.6783C157.887 26.6783 158.352 26.8618 158.719 27.2287C159.086 27.5956 159.269 28.0612 159.269 28.6257V46.7867C159.269 47.3229 159.072 47.7744 158.677 48.1413C158.31 48.5082 157.858 48.6917 157.322 48.6917Z" fill="#030303"/>
<path d="M171.461 48.9033C170.22 48.9033 169.063 48.6493 167.99 48.1413C166.946 47.6333 166.113 46.8996 165.492 45.94C164.872 44.9522 164.561 43.8233 164.561 42.5533C164.561 40.4649 165.38 38.7998 167.016 37.558C168.682 36.3162 171.109 35.6953 174.298 35.6953H179.42V35.3567C179.42 33.494 178.954 32.1535 178.023 31.335C177.12 30.5166 175.695 30.1073 173.747 30.1073C172.675 30.1073 171.715 30.192 170.869 30.3613C170.05 30.5307 169.133 30.7847 168.117 31.1233C167.891 31.1798 167.708 31.208 167.567 31.208C167.143 31.208 166.777 31.0528 166.466 30.7423C166.156 30.4319 166 30.0509 166 29.5993C166 28.8373 166.367 28.3011 167.101 27.9907C169.5 26.9747 171.941 26.4667 174.425 26.4667C176.372 26.4667 178.009 26.8618 179.335 27.652C180.69 28.4422 181.678 29.4723 182.299 30.7423C182.948 31.9841 183.272 33.3388 183.272 34.8063V46.7867C183.272 47.3229 183.075 47.7745 182.68 48.1413C182.313 48.5082 181.861 48.6917 181.325 48.6917C180.789 48.6917 180.337 48.5082 179.97 48.1413C179.604 47.7745 179.42 47.3229 179.42 46.7867V45.686C177.332 47.8309 174.679 48.9033 171.461 48.9033ZM172.901 45.5167C174.143 45.5167 175.342 45.2203 176.499 44.6277C177.656 44.0068 178.63 43.2448 179.42 42.3417V38.7857H174.806C170.544 38.7857 168.413 39.9004 168.413 42.13C168.413 43.146 168.752 43.9645 169.429 44.5853C170.135 45.2062 171.292 45.5167 172.901 45.5167Z" fill="#030303"/>
<path d="M191.654 48.6917C191.118 48.6917 190.667 48.5082 190.3 48.1413C189.933 47.7745 189.749 47.3229 189.749 46.7867V28.6257C189.749 28.0895 189.933 27.6379 190.3 27.271C190.667 26.8759 191.118 26.6783 191.654 26.6783C192.191 26.6783 192.642 26.8759 193.009 27.271C193.404 27.6379 193.602 28.0895 193.602 28.6257V30.3613C194.674 29.176 195.831 28.2306 197.073 27.525C198.315 26.8195 199.782 26.4667 201.476 26.4667C203.028 26.4667 204.368 26.8336 205.497 27.5673C206.654 28.3011 207.529 29.303 208.122 30.573C208.743 31.843 209.053 33.24 209.053 34.764V46.7867C209.053 47.3229 208.856 47.7745 208.461 48.1413C208.094 48.5082 207.642 48.6917 207.106 48.6917C206.57 48.6917 206.118 48.5082 205.751 48.1413C205.384 47.7745 205.201 47.3229 205.201 46.7867V35.1873C205.201 31.7442 203.649 30.0227 200.544 30.0227C199.133 30.0227 197.863 30.3896 196.734 31.1233C195.634 31.8571 194.589 32.8449 193.602 34.0867V46.7867C193.602 47.3229 193.404 47.7745 193.009 48.1413C192.642 48.5082 192.191 48.6917 191.654 48.6917Z" fill="#030303"/>
<path d="M99.8091 43.3153C99.8091 47.0407 101.869 48.9033 105.99 48.9033C107.231 48.9033 108.403 48.6494 109.503 48.1414C110.153 47.8027 110.477 47.3088 110.477 46.6597C110.477 46.2363 110.322 45.8836 110.011 45.6013C109.701 45.2909 109.348 45.1357 108.953 45.1357C108.756 45.1357 108.586 45.1498 108.445 45.178L108.106 45.2627C107.542 45.432 106.978 45.5167 106.413 45.5167C105.623 45.5167 104.96 45.3756 104.423 45.0933C103.915 44.7829 103.661 44.0773 103.661 42.9767V30.192H108.445C108.925 30.192 109.32 30.0368 109.63 29.7263C109.941 29.3877 110.096 28.9926 110.096 28.541C110.096 28.0613 109.941 27.6661 109.63 27.3557C109.32 27.0453 108.925 26.89 108.445 26.89H103.661V24.6383L103.189 24.6383L102.581 24.6383L102.05 24.6383H99.8091L99.809 26.89H96.4906C96.0108 26.89 95.6157 27.0453 95.3053 27.3557C94.9948 27.6944 94.8396 28.0895 94.8396 28.541C94.8396 29.0208 94.9948 29.4159 95.3053 29.7264C95.6157 30.0368 96.0108 30.192 96.4906 30.192L99.8091 30.192V43.3153Z" fill="#030303"/>
<path d="M99.8063 28.6108V23.9273C99.8063 23.4576 99.9878 23.0707 100.351 22.7668C100.714 22.4628 101.176 22.3108 101.737 22.3108C102.265 22.3108 102.727 22.4628 103.123 22.7668C103.486 23.0707 103.668 23.4576 103.668 23.9273V28.6108H99.8063Z" fill="#030303"/>
<g clip-path="url(#clip0_167_19)">
<path d="M27.5 65C26.6716 65 26 64.3284 26 63.5V34C26 33.1716 26.6716 32.5 27.5 32.5C28.3284 32.5 29 33.1716 29 34V63.5C29 64.3284 28.3284 65 27.5 65Z" fill="#4084F7" stroke="white" stroke-width="0.8"/>
<path d="M32.5 56.3333C31.6716 56.3333 31 55.6618 31 54.8333V34C31 33.1716 31.6716 32.5 32.5 32.5C33.3284 32.5 34 33.1716 34 34V54.8333C34 55.6618 33.3284 56.3333 32.5 56.3333Z" fill="#4084F7" stroke="white" stroke-width="0.8"/>
<path d="M34.3104 15.7536V16.079H35.1272V15.7536H34.3104Z" fill="#F2D22E"/>
<path d="M46 20.1667V50.25C46 53.0114 48.2386 55.25 51 55.25H55C57.7614 55.25 60 53.0114 60 50.25V20.1667C60 17.4052 57.7614 15.1667 55 15.1667H51C48.2386 15.1667 46 17.4052 46 20.1667Z" fill="#2EB77C"/>
<path d="M0 20.1667V50.25C0 53.0114 2.2386 55.25 5 55.25H9C11.7614 55.25 14 53.0114 14 50.25V20.1667C14 17.4052 11.7614 15.1667 9 15.1667H5C2.2386 15.1667 0 17.4052 0 20.1667Z" fill="#E11E5A"/>
<path d="M23 5V21C23 23.7614 25.2386 26 28 26H32C34.7614 26 37 23.7614 37 21V5C37 2.2386 34.7614 0 32 0H28C25.2386 0 23 2.2386 23 5Z" fill="#FBBC05"/>
</g>
<defs>
<clipPath id="clip0_167_19">
<rect width="60" height="65.4" fill="white"/>
</clipPath>
</defs>
</svg>
