<svg width="155" height="49" viewBox="0 0 155 49" fill="none" xmlns="http://www.w3.org/2000/svg">
<path d="M62.5954 36.2588C60.5029 36.2588 58.5987 35.788 56.8828 34.8463C56.5271 34.5952 56.3492 34.25 56.3492 33.8105C56.3492 33.4757 56.4643 33.1828 56.6945 32.9317C56.9247 32.6806 57.2176 32.555 57.5734 32.555C57.7617 32.555 57.95 32.5969 58.1383 32.6806C58.8079 32.9735 59.4775 33.2037 60.1471 33.3711C60.8167 33.5385 61.57 33.6222 62.407 33.6222C64.7297 33.6222 65.891 32.8794 65.891 31.3937C65.891 30.9124 65.619 30.5462 65.075 30.2951C64.5518 30.044 63.6835 29.7616 62.4698 29.4477C61.2352 29.1547 60.2099 28.8513 59.3938 28.5374C58.5987 28.2236 57.9082 27.7527 57.3223 27.125C56.7573 26.4763 56.4748 25.6289 56.4748 24.5826C56.4748 23.1179 56.9979 21.9251 58.0442 21.0044C59.1113 20.0837 60.6284 19.6234 62.5954 19.6234C64.2066 19.6234 65.7236 19.8849 67.1465 20.4081C67.4395 20.4918 67.6592 20.6487 67.8057 20.8789C67.9731 21.1091 68.0568 21.3497 68.0568 21.6008C68.0568 21.9356 67.9312 22.2285 67.6801 22.4796C67.45 22.7307 67.157 22.8563 66.8013 22.8563C66.6967 22.8563 66.5606 22.8354 66.3932 22.7935C65.1796 22.4169 63.9869 22.2285 62.8151 22.2285C61.6851 22.2285 60.7958 22.4378 60.1471 22.8563C59.5194 23.2539 59.2055 23.777 59.2055 24.4257C59.2055 25.0534 59.4985 25.5138 60.0844 25.8067C60.6703 26.0997 61.5805 26.3822 62.8151 26.6542C64.0496 26.9681 65.054 27.2819 65.8283 27.5958C66.6025 27.8888 67.2616 28.3596 67.8057 29.0083C68.3707 29.6569 68.6532 30.5253 68.6532 31.6134C68.6532 32.9526 68.1196 34.0616 67.0524 34.9405C66.0061 35.8193 64.5205 36.2588 62.5954 36.2588V36.2588Z" fill="white"/>
<path d="M91.1893 36.2588C89.578 36.2588 88.1656 35.9135 86.9519 35.223C85.7383 34.5325 84.7967 33.5594 84.1271 32.3039C83.4784 31.0275 83.1541 29.5732 83.1541 27.9411C83.1541 26.3089 83.4784 24.8651 84.1271 23.6096C84.7967 22.3332 85.7383 21.3497 86.9519 20.6592C88.1656 19.9686 89.578 19.6234 91.1893 19.6234C92.7796 19.6234 94.1815 19.9686 95.3952 20.6592C96.6088 21.3497 97.5505 22.3332 98.2201 23.6096C98.8897 24.8651 99.2245 26.3089 99.2245 27.9411C99.2245 29.5732 98.8897 31.0275 98.2201 32.3039C97.5505 33.5594 96.6088 34.5325 95.3952 35.223C94.1815 35.9135 92.7796 36.2588 91.1893 36.2588ZM91.1893 33.6536C92.0472 33.6536 92.8633 33.4548 93.6375 33.0572C94.4326 32.6597 95.0813 32.0319 95.5835 31.174C96.1066 30.3161 96.3682 29.228 96.3682 27.9097C96.3682 26.6123 96.1066 25.5347 95.5835 24.6768C95.0813 23.8188 94.4326 23.2016 93.6375 22.8249C92.8633 22.4273 92.0472 22.2285 91.1893 22.2285C90.3104 22.2285 89.4734 22.4273 88.6783 22.8249C87.904 23.2016 87.2658 23.8188 86.7636 24.6768C86.2614 25.5347 86.0103 26.6123 86.0103 27.9097C86.0103 29.228 86.2614 30.3161 86.7636 31.174C87.2658 32.0319 87.904 32.6597 88.6783 33.0572C89.4734 33.4548 90.3104 33.6536 91.1893 33.6536Z" fill="white"/>
<path d="M104.623 36.1018C104.226 36.1018 103.891 35.9658 103.619 35.6938C103.347 35.4218 103.211 35.087 103.211 34.6894V21.2241C103.211 20.8266 103.347 20.4918 103.619 20.2197C103.891 19.9268 104.226 19.7803 104.623 19.7803C105.021 19.7803 105.356 19.9268 105.628 20.2197C105.92 20.4918 106.067 20.8266 106.067 21.2241V22.5738C107.532 20.6069 109.174 19.6234 110.995 19.6234H111.152C111.549 19.6234 111.874 19.7594 112.125 20.0314C112.397 20.3034 112.533 20.6382 112.533 21.0358C112.533 21.4334 112.397 21.7577 112.125 22.0088C111.853 22.2599 111.507 22.3855 111.089 22.3855H110.932C109.928 22.3855 109.007 22.6366 108.17 23.1388C107.333 23.6201 106.632 24.2897 106.067 25.1476V34.6894C106.067 35.087 105.92 35.4218 105.628 35.6938C105.356 35.9658 105.021 36.1018 104.623 36.1018Z" fill="white"/>
<path d="M116.582 16.6729C116.142 16.6729 115.766 16.516 115.452 16.2021C115.138 15.8883 114.981 15.5116 114.981 15.0722V14.9466C114.981 14.5072 115.138 14.1306 115.452 13.8167C115.766 13.5028 116.142 13.3459 116.582 13.3459H116.77C117.21 13.3459 117.586 13.5028 117.9 13.8167C118.214 14.1306 118.371 14.5072 118.371 14.9466V15.0722C118.371 15.5116 118.214 15.8883 117.9 16.2021C117.586 16.516 117.21 16.6729 116.77 16.6729H116.582ZM116.645 36.1018C116.247 36.1018 115.912 35.9658 115.64 35.6938C115.368 35.4218 115.232 35.087 115.232 34.6894V21.2241C115.232 20.8266 115.368 20.4918 115.64 20.2197C115.912 19.9268 116.247 19.7803 116.645 19.7803C117.063 19.7803 117.408 19.9163 117.68 20.1884C117.952 20.4604 118.088 20.8056 118.088 21.2241V34.6894C118.088 35.087 117.942 35.4218 117.649 35.6938C117.377 35.9658 117.042 36.1018 116.645 36.1018Z" fill="white"/>
<path d="M127.128 36.2588C126.207 36.2588 125.349 36.0704 124.554 35.6938C123.78 35.3171 123.163 34.7731 122.702 34.0616C122.242 33.3293 122.012 32.4923 122.012 31.5506C122.012 30.0022 122.619 28.7676 123.832 27.8469C125.067 26.9262 126.866 26.4659 129.231 26.4659H133.029V26.2148C133.029 24.8337 132.684 23.8398 131.993 23.2329C131.323 22.6261 130.267 22.3227 128.823 22.3227C128.028 22.3227 127.316 22.3855 126.689 22.511C126.082 22.6366 125.402 22.8249 124.648 23.076C124.481 23.1179 124.345 23.1388 124.24 23.1388C123.926 23.1388 123.654 23.0237 123.424 22.7935C123.194 22.5633 123.079 22.2809 123.079 21.9461C123.079 21.3811 123.351 20.9835 123.895 20.7533C125.674 20 127.484 19.6234 129.325 19.6234C130.769 19.6234 131.983 19.9163 132.966 20.5022C133.97 21.0881 134.703 21.8519 135.163 22.7935C135.644 23.7142 135.885 24.7186 135.885 25.8067V34.6894C135.885 35.087 135.739 35.4218 135.446 35.6938C135.174 35.9658 134.839 36.1018 134.441 36.1018C134.044 36.1018 133.709 35.9658 133.437 35.6938C133.165 35.4218 133.029 35.087 133.029 34.6894V33.8733C131.48 35.4636 129.513 36.2588 127.128 36.2588V36.2588ZM128.195 33.7478C129.116 33.7478 130.005 33.5281 130.863 33.0886C131.721 32.6283 132.443 32.0633 133.029 31.3937V28.7571H129.608C126.448 28.7571 124.868 29.5837 124.868 31.2368C124.868 31.9901 125.119 32.5969 125.621 33.0572C126.144 33.5176 127.002 33.7478 128.195 33.7478V33.7478Z" fill="white"/>
<path d="M142.1 36.1018C141.702 36.1018 141.367 35.9658 141.095 35.6938C140.823 35.4218 140.687 35.087 140.687 34.6894V21.2241C140.687 20.8266 140.823 20.4918 141.095 20.2197C141.367 19.9268 141.702 19.7803 142.1 19.7803C142.497 19.7803 142.832 19.9268 143.104 20.2197C143.397 20.4918 143.544 20.8266 143.544 21.2241V22.511C144.339 21.6322 145.197 20.9312 146.117 20.4081C147.038 19.8849 148.126 19.6234 149.382 19.6234C150.533 19.6234 151.526 19.8954 152.363 20.4395C153.221 20.9835 153.87 21.7263 154.309 22.668C154.77 23.6096 155 24.6454 155 25.7753V34.6894C155 35.087 154.854 35.4218 154.561 35.6938C154.289 35.9658 153.954 36.1018 153.556 36.1018C153.159 36.1018 152.824 35.9658 152.552 35.6938C152.28 35.4218 152.144 35.087 152.144 34.6894V26.0892C152.144 23.5364 150.993 22.2599 148.691 22.2599C147.645 22.2599 146.703 22.532 145.866 23.076C145.05 23.6201 144.276 24.3524 143.544 25.2731V34.6894C143.544 35.087 143.397 35.4218 143.104 35.6938C142.832 35.9658 142.497 36.1018 142.1 36.1018V36.1018Z" fill="white"/>
<path d="M74.0022 32.1156C74.0022 34.8777 75.5297 36.2588 78.5847 36.2588C79.5054 36.2588 80.3738 36.0705 81.1899 35.6938C81.6712 35.4427 81.9118 35.0765 81.9118 34.5952C81.9118 34.2814 81.7967 34.0198 81.5666 33.8105C81.3364 33.5804 81.0748 33.4653 80.7819 33.4653C80.6354 33.4653 80.5099 33.4758 80.4052 33.4967L80.1541 33.5595C79.7356 33.685 79.3171 33.7478 78.8986 33.7478C78.3127 33.7478 77.821 33.6432 77.4234 33.4339C77.0468 33.2037 76.8584 32.6806 76.8584 31.8645V22.3855H80.4052C80.761 22.3855 81.0539 22.2704 81.2841 22.0402C81.5143 21.7891 81.6294 21.4962 81.6294 21.1614C81.6294 20.8057 81.5143 20.5127 81.2841 20.2825C81.0539 20.0524 80.761 19.9373 80.4052 19.9373H76.8584V18.2678L76.5083 18.2678L76.0577 18.2678L75.6634 18.2678H74.0022L74.0022 19.9373H71.5418C71.186 19.9373 70.8931 20.0524 70.6629 20.2825C70.4327 20.5336 70.3176 20.8266 70.3176 21.1614C70.3176 21.5171 70.4327 21.8101 70.6629 22.0402C70.8931 22.2704 71.186 22.3855 71.5418 22.3855L74.0022 22.3855V32.1156Z" fill="white"/>
<path d="M74.0002 21.2132V17.7406C74.0002 17.3923 74.1347 17.1055 74.4039 16.8801C74.6731 16.6548 75.0157 16.5421 75.4317 16.5421C75.8232 16.5421 76.1658 16.6548 76.4594 16.8801C76.7286 17.1055 76.8632 17.3923 76.8632 17.7406V21.2132H74.0002Z" fill="white"/>
<g clip-path="url(#clip0_167_19)">
<path d="M20.3896 48.1934C19.7754 48.1934 19.2774 47.6955 19.2774 47.0813V25.2089C19.2774 24.5947 19.7754 24.0967 20.3896 24.0967C21.0038 24.0967 21.5017 24.5947 21.5017 25.2089V47.0813C21.5017 47.6955 21.0038 48.1934 20.3896 48.1934Z" fill="#4084F7" stroke="white" stroke-width="0.8"/>
<path d="M24.0967 41.7676C23.4825 41.7676 22.9846 41.2698 22.9846 40.6555V25.2089C22.9846 24.5947 23.4825 24.0967 24.0967 24.0967C24.7109 24.0967 25.2089 24.5947 25.2089 25.2089V40.6555C25.2089 41.2698 24.7109 41.7676 24.0967 41.7676Z" fill="#4084F7" stroke="white" stroke-width="0.8"/>
<path d="M25.439 11.6803V11.9216H26.0446V11.6803H25.439Z" fill="#F2D22E"/>
<path d="M34.1061 14.9524V37.2572C34.1061 39.3046 35.7659 40.9644 37.8133 40.9644H40.7791C42.8265 40.9644 44.4863 39.3046 44.4863 37.2572V14.9524C44.4863 12.9049 42.8265 11.2452 40.7791 11.2452H37.8133C35.7659 11.2452 34.1061 12.9049 34.1061 14.9524Z" fill="#2EB77C"/>
<path d="M0 14.9524V37.2572C0 39.3046 1.65978 40.9644 3.70719 40.9644H6.67294C8.72034 40.9644 10.3801 39.3046 10.3801 37.2572V14.9524C10.3801 12.9049 8.72034 11.2452 6.67294 11.2452H3.70719C1.65978 11.2452 0 12.9049 0 14.9524Z" fill="#E11E5A"/>
<path d="M17.053 3.70719V15.5702C17.053 17.6176 18.7128 19.2774 20.7602 19.2774H23.726C25.7734 19.2774 27.4332 17.6176 27.4332 15.5702V3.70719C27.4332 1.65978 25.7734 0 23.726 0H20.7602C18.7128 0 17.053 1.65978 17.053 3.70719Z" fill="#FBBC05"/>
</g>
<defs>
<clipPath id="clip0_167_19">
<rect width="44.4863" height="48.49" fill="white"/>
</clipPath>
</defs>
</svg>
